<svg width="28" height="28" viewBox="0 0 28 28" fill="none" xmlns="http://www.w3.org/2000/svg">
<rect x="0.490509" y="0.35083" width="27.0056" height="27.0056" rx="3.85794" fill="#1E123B"/>
<path d="M23.1264 9.70108L11.9384 20.8891C11.8409 20.9869 11.7251 21.0645 11.5977 21.1174C11.4702 21.1704 11.3335 21.1976 11.1954 21.1976C11.0574 21.1976 10.9207 21.1704 10.7932 21.1174C10.6657 21.0645 10.5499 20.9869 10.4525 20.8891L5.55771 15.9943C5.46015 15.8968 5.38275 15.781 5.32995 15.6535C5.27715 15.526 5.24997 15.3894 5.24997 15.2514C5.24997 15.1134 5.27715 14.9768 5.32995 14.8493C5.38275 14.7218 5.46015 14.606 5.55771 14.5084C5.65528 14.4109 5.77111 14.3335 5.89858 14.2807C6.02606 14.2279 6.16269 14.2007 6.30067 14.2007C6.43865 14.2007 6.57527 14.2279 6.70275 14.2807C6.83023 14.3335 6.94605 14.4109 7.04362 14.5084L11.1963 18.6611L21.6422 8.21692C21.8393 8.01988 22.1065 7.90918 22.3852 7.90918C22.6639 7.90918 22.9311 8.01988 23.1282 8.21692C23.3252 8.41397 23.4359 8.68121 23.4359 8.95988C23.4359 9.23854 23.3252 9.50579 23.1282 9.70283L23.1264 9.70108Z" fill="#FAFAFA"/>
</svg>
