<svg width="35" height="35" viewBox="0 0 35 35" fill="none" xmlns="http://www.w3.org/2000/svg">
<rect x="1.73008" y="1.26451" width="32.4067" height="32.4067" rx="3.08635" fill="#8719E0" fill-opacity="0.02" stroke="white" stroke-width="1.54318"/>
<g clip-path="url(#clip0_59_31)">
<path fill-rule="evenodd" clip-rule="evenodd" d="M25.7757 8.94214C25.2331 8.3997 24.4972 8.09497 23.73 8.09497C22.9628 8.09497 22.2269 8.3997 21.6843 8.94214L21.0024 9.62499L25.7766 14.3992L26.4576 13.7173C26.7263 13.4486 26.9395 13.1296 27.0849 12.7785C27.2304 12.4275 27.3052 12.0512 27.3052 11.6711C27.3052 11.2911 27.2304 10.9148 27.0849 10.5638C26.9395 10.2127 26.7263 9.89368 26.4576 9.62499L25.7757 8.94214ZM24.4119 15.763L19.6377 10.9888L10.8705 19.7569C10.6787 19.9488 10.5447 20.1908 10.4838 20.4552L9.49132 24.752C9.45434 24.9115 9.45858 25.0778 9.50364 25.2352C9.54871 25.3926 9.63311 25.536 9.74889 25.6518C9.86468 25.7676 10.008 25.852 10.1655 25.897C10.3229 25.9421 10.4892 25.9463 10.6487 25.9094L14.9464 24.9179C15.2105 24.8568 15.4521 24.7228 15.6438 24.5311L24.4119 15.763Z" fill="white"/>
</g>
<defs>
<clipPath id="clip0_59_31">
<rect width="23.1476" height="23.1476" fill="white" transform="translate(6.35962 5.89429)"/>
</clipPath>
</defs>
</svg>
