<svg width="35" height="35" viewBox="0 0 35 35" fill="none" xmlns="http://www.w3.org/2000/svg">
<rect x="1.06437" y="1.26451" width="32.4067" height="32.4067" rx="3.08635" fill="#FE5944" fill-opacity="0.02" stroke="white" stroke-width="1.54318"/>
<path d="M24.5456 23.2105C24.7495 23.4143 24.864 23.6908 24.864 23.9791C24.864 24.2674 24.7495 24.5438 24.5456 24.7477C24.3418 24.9515 24.0653 25.066 23.7771 25.066C23.4888 25.066 23.2123 24.9515 23.0085 24.7477L17.2677 19.0051L11.5251 24.7458C11.3212 24.9497 11.0448 25.0642 10.7565 25.0642C10.4682 25.0642 10.1918 24.9497 9.98794 24.7458C9.7841 24.542 9.66959 24.2655 9.66959 23.9773C9.66959 23.689 9.7841 23.4125 9.98794 23.2087L15.7305 17.4679L9.98975 11.7253C9.78591 11.5215 9.67139 11.245 9.67139 10.9567C9.67139 10.6685 9.78591 10.392 9.98975 10.1882C10.1936 9.98432 10.4701 9.8698 10.7583 9.8698C11.0466 9.8698 11.3231 9.98432 11.5269 10.1882L17.2677 15.9308L23.0103 10.1872C23.2141 9.98341 23.4906 9.8689 23.7789 9.8689C24.0671 9.8689 24.3436 9.98341 24.5474 10.1872C24.7513 10.3911 24.8658 10.6676 24.8658 10.9558C24.8658 11.2441 24.7513 11.5206 24.5474 11.7244L18.8048 17.4679L24.5456 23.2105Z" fill="white"/>
</svg>
